<?xml version="1.0" encoding="UTF-8"?>
<svg id="Ebene_1" data-name="Ebene 1" xmlns="http://www.w3.org/2000/svg" viewBox="0 0 253.39 66.29">
  <defs>
    <style>
      .cls-1 {
        fill: #c4d20c;
      }

      .cls-2 {
        fill: #1d1d1b;
      }
    </style>
  </defs>
  <path class="cls-2" d="M0,52.76V13.81h5.05c16.99,29.08,19.17,32.77,19.92,34.43h.06c-.35-5.39-.4-11.64-.4-17.95V13.81h3.61v38.96h-4.56C5.52,21.42,4.35,19.2,3.42,17.51h-.06c.28,5.07.2,11.53.2,18.54v16.71H0Z"/>
  <path class="cls-1" d="M79.72,46.21c0,3.08-.53,5.86-1.59,8.34-1.06,2.48-2.5,4.59-4.33,6.32s-3.99,3.07-6.5,4.01c-2.5.94-5.22,1.41-8.16,1.41s-5.66-.47-8.16-1.41c-2.5-.94-4.68-2.27-6.53-4.01-1.86-1.73-3.3-3.84-4.33-6.32-1.03-2.48-1.55-5.26-1.55-8.34V13.86h9.1v32.06c0,1.25.19,2.56.58,3.94s1.02,2.64,1.91,3.79c.89,1.16,2.07,2.11,3.54,2.85,1.47.75,3.29,1.12,5.45,1.12s3.98-.37,5.45-1.12c1.47-.75,2.65-1.7,3.54-2.85.89-1.15,1.53-2.42,1.91-3.79s.58-2.68.58-3.94V13.86h9.1v32.35ZM46.14,5.2c0-1.4.52-2.61,1.55-3.65,1.03-1.03,2.35-1.55,3.93-1.55s2.93.49,4.01,1.48c1.08.99,1.62,2.23,1.62,3.72s-.54,2.73-1.62,3.72c-1.08.99-2.42,1.48-4.01,1.48s-2.9-.52-3.93-1.55c-1.04-1.03-1.55-2.25-1.55-3.65ZM61.01,5.2c0-1.4.52-2.61,1.55-3.65s2.35-1.55,3.94-1.55,2.92.49,4.01,1.48c1.08.99,1.62,2.23,1.62,3.72s-.54,2.73-1.62,3.72c-1.08.99-2.42,1.48-4.01,1.48s-2.9-.52-3.94-1.55c-1.04-1.03-1.55-2.25-1.55-3.65Z"/>
  <path class="cls-2" d="M97.14,17.11h-11.71v-3.3h27.2v3.3h-11.75v35.66h-3.74V17.11Z"/>
  <path class="cls-2" d="M115.69,49.76l22.39-32.7h-21.16v-3.25h25.42v3.27l-22.18,32.43h22.87l-.51,3.25h-26.83v-3.01Z"/>
  <path class="cls-2" d="M149.98,13.81h3.69v35.71h19.24l-.62,3.25h-22.31V13.81Z"/>
  <path class="cls-2" d="M182.08,13.81v38.96h-3.69V13.81h3.69Z"/>
  <path class="cls-2" d="M219.37,41.76c-1.2,6.06-5.13,11.56-13.97,11.56-11.09,0-15.39-8.56-15.39-20.41,0-9.99,4.7-19.66,15.63-19.66,8.38,0,12.65,4.98,13.55,11.73h-3.79c-1.06-5.04-3.92-8.47-9.9-8.47-8.12,0-11.63,7.77-11.63,16.44s2.67,17.12,11.65,17.12c6,0,8.72-3.36,10.09-8.31h3.75Z"/>
  <path class="cls-2" d="M226.33,13.81h3.69v16.76h19.64V13.81h3.73v38.96h-3.73v-18.89h-19.64v18.89h-3.69V13.81Z"/>
</svg>