<?xml version="1.0" encoding="UTF-8"?>
<svg width="400" height="400" viewBox="0 0 400 400" fill="none" xmlns="http://www.w3.org/2000/svg">
  <!-- Hintergrund -->
  <circle cx="200" cy="200" r="200" fill="#E5E7EB"/>
  
  <!-- Kopf & Hals -->
  <path d="M200 280C244.183 280 280 244.183 280 200C280 155.817 244.183 120 200 120C155.817 120 120 155.817 120 200C120 244.183 155.817 280 200 280Z" fill="#FFB7A1"/>
  
  <!-- Haare -->
  <path d="M200 120C155.817 120 120 155.817 120 200C120 210 121.5 219.5 124.2 228.3C131.5 205 154.6 188 182 188C209.4 188 232.5 205 239.8 228.3C242.5 219.5 244 210 244 200C244 155.817 244.183 120 200 120Z" fill="#4B5563"/>
  <path d="M280 200C280 155.817 244.183 120 200 120C180 120 161.7 126.5 147 137.2C161.7 146.5 171 162.8 171 181C171 208.4 154 231.5 130.7 238.8C145.4 263.5 170.5 280 200 280C244.183 280 280 244.183 280 200Z" fill="#4B5563"/>
  
  <!-- Brille -->
  <path d="M160 190H180C186.627 190 192 195.373 192 202V202C192 208.627 186.627 214 180 214H160C153.373 214 148 208.627 148 202V202C148 195.373 153.373 190 160 190Z" fill="white" fill-opacity="0.9"/>
  <path d="M220 190H240C246.627 190 252 195.373 252 202V202C252 208.627 246.627 214 240 214H220C213.373 214 208 208.627 208 202V202C208 195.373 213.373 190 220 190Z" fill="white" fill-opacity="0.9"/>
  <path d="M192 202H208" stroke="#4B5563" stroke-width="4"/>
  
  <!-- Laptop Silhouette im Vordergrund -->
  <path d="M140 320H260C266.627 320 272 325.373 272 332V332C272 338.627 266.627 344 260 344H140C133.373 344 128 338.627 128 332V332C128 325.373 133.373 320 140 320Z" fill="#4B5563"/>
  <path d="M160 280H240C246.627 280 252 285.373 252 292V320H148V292C148 285.373 153.373 280 160 280Z" fill="#6B7280"/>
</svg> 